**ABCDEFGHIJKLMNOPQRSTUVWXYZabcdefghijklmnopqrstuvwxyz**************************
**PARASOLID !"#$%&'()*+,-./:;<=>?@[\]^_`{|}~0123456789**************************
**PART1;
MC=AMD64;
MC_MODEL=Intel64 Family 6 Model 94 Stepping 3, GenuineIntel;
MC_ID=unknown;
OS=Windows_NT;
OS_RELEASE=unknown;
FRU=Parasolid Version 24.1, build 264,  4-19-2013;
APPL=SolidWorks 2013-2013186;
SITE=;
USER=unknown;
FORMAT=text;
GUISE=transmit;
KEY=inner_tube_flow;
FILE=inner_tube_flow.x_t;
DATE=Thu Jan 21 09:24:20 2021;
**PART2;
SCH=SCH_2401264_20000;
USFLD_SIZE=0;
**PART3;
**END_OF_HEADER*****************************************************************
T51 : TRANSMIT FILE created by modeller version 240126423 SCH_2401264_20000_1300
6189 0 12 27 CCCCCCCCCCCCCCCCCCCCCCCA16 index_map_offset0 0 1 dA9 index_map82 0
 A17 node_id_index_map82 0 A20 schema_embedding_map82 0 Z1 102 0 2 0 0 0 0 1e3 1
e-8 0 3 0 1 0 1 1 4 5 6 0 7 8 0 0 0 0 0 70 11 CI9 list_type0 0 1 uI10 notransmit
0 0 1 lCCCDCCDI12 finger_index0 0 1 dI12 finger_block1012 0 CZ2 0 4 T1 0 0 2 20
 1 9 9 13 255 4 29 0 1 0 10 0 0 11 0 51 255 5 28 0 12 13 0 0 -.25 0 0 -1 0 0 .00
5 0 0 1 31 255 6 61 0 8 14 0 0 +.1 0 0 -1 0 0 0 0 1 .005 19 255 7 7 0 1 11 0 15
 V16 255 8 58 0 ?16 0 17 6 0 0 1 17 255 16 0 18 16 16 0 19 8 0 0 +16 17 4 0 ?20
 8 21 22 0 0 1 17 20 0 23 20 20 0 24 17 0 0 +16 21 18 0 ?25 17 0 14 0 0 1 31 22
 5 0 17 0 14 0 +.25 0 0 1 0 0 0 0 -1 .005 31 14 23 0 21 22 6 0 +0 0 0 1 0 0 0 0
 -1 .005 17 25 0 26 25 25 0 27 21 0 0 +15 255 26 26 0 25 10 18 17 27 0 28 27 27
 0 25 21 0 0 -15 28 17 0 27 29 0 14 255 29 16 30 ?0 31 28 4 13 -0 0 0 31 15 81 2
55 1 30 99 32 29 33 0 0 34 35 14 31 1 34 ?29 12 23 4 36 +0 0 29 12 15 50 255 13
 22 0 29 36 5 0 +0 0 0 1 0 0 0 0 -1 13 15 8 0 0 0 0 0 0 7 10 14 10 62 37 ?12 0 2
6 4 5 -12 12 12 0 15 81 1 37 101 32 10 38 0 34 39 40 14 12 25 39 ?31 10 41 4 5 -
10 10 31 10 15 81 1 39 102 32 12 42 0 37 0 43 15 41 60 0 19 12 44 17 19 0 41 19
 19 0 16 8 0 0 -15 44 24 0 24 12 0 17 24 0 44 24 24 0 20 17 0 0 -80 255 1 32 45
 46 9000 1 1 1 1 1 1 1 1 0 FFFFTFTFFFFFFF1 81 1 42 86 47 12 0 39 38 48 49 82 255
 1 43 155975813 80 1 47 0 50 8001 0 0 0 0 3 5 0 0 0 FFFFTFTFFFFFFF2 81 1 38 85 4
7 10 0 37 0 42 51 81 1 48 87 47 31 0 34 42 33 52 83 255 3 49 .792156862745098 .8
19607843137255 .933333333333333 81 1 34 100 32 31 48 0 30 37 53 81 1 33 88 47 29
 0 30 48 0 54 83 3 52 .792156862745098 .819607843137255 .933333333333333 83 3 54
 .792156862745098 .819607843137255 .933333333333333 82 1 53 251986043 83 3 51 .7
92156862745098 .819607843137255 .933333333333333 79 255 15 50 SDL/TYSA_COLOUR79
 14 46 SWEntUnchanged82 1 40 -395313019 50 36 2 0 31 0 13 0 +.25 0 0 1 0 0 0 0 -
1 15 23 3 0 20 31 0 82 1 35 253427835 15 18 59 0 16 10 0 19 11 30 0 1 0 7 4 S74
 4 CI16 index_map_offset0 0 1 dCCZ20 9 2 0 0 39 33 0 0 0 0 0 0 0 0 0 0 0 0 0 0 0
 0 0 0 1 0 
